# xmcd
#
# Track frame offsets:
#	150
#	13415
#	26142
#	39022
#	50237
#	65364
#	79115
#	93806
#	108020
#	120158
#	131443
#	144943
#	159363
#	170530
#	184347
#	195461
#	206544
#	223303
#	236933
#	251303
#	264017
#	278855
#	293162
#	304740
#	319940
#
# Disc length: 4452 seconds
#
# Revision: 0
# Processed by: cddbd v1.5.2PL0 Copyright (c) Steve Scherf et al.
# Submitted via: EasyCDDAExtractor 10.1.0.1
#
DISCID=5d116219
DTITLE=Muddy Waters - The Essence Of Muddy Waters, disc 1
DYEAR=2007
DGENRE=Blues
TTITLE0=Mannish Boy
TTITLE1=I'm Your Hoochie Coochie Man
TTITLE2=Forty Days and Forty Nights
TTITLE3=I Want To Be Loved
TTITLE4=Honey Bee
TTITLE5=Mad Love
TTITLE6=Baby Please Don't Go
TTITLE7=All Night Long
TTITLE8=Howling Wolf
TTITLE9=Sugar Sweet
TTITLE10=Young Fashioned Ways
TTITLE11=Please Have Mercy
TTITLE12=She's All Right
TTITLE13=Who's Gonna Be Your Sweet Man
TTITLE14=Loving Man
TTITLE15=Gone To Main Street
TTITLE16=Sad Sad Day
TTITLE17=Sad Letter Blues
TTITLE18=Too Young To Know
TTITLE19=Stuff You Gotta Watch
TTITLE20=Still A Fool
TTITLE21=Blow Wind Blow
TTITLE22=Last Time I Fool Around With You
TTITLE23=They Call Me Muddy Waters
TTITLE24=Rollin' Stone
EXTD=
EXTT0=
EXTT1=
EXTT2=
EXTT3=
EXTT4=
EXTT5=
EXTT6=
EXTT7=
EXTT8=
EXTT9=
EXTT10=
EXTT11=
EXTT12=
EXTT13=
EXTT14=
EXTT15=
EXTT16=
EXTT17=
EXTT18=
EXTT19=
EXTT20=
EXTT21=
EXTT22=
EXTT23=
EXTT24=
PLAYORDER=
